<?xml version="1.0" encoding="utf-8"?>
<!-- Generator: Adobe Illustrator 21.0.2, SVG Export Plug-In . SVG Version: 6.00 Build 0)  -->
<svg version="1.1" id="Layer_1" xmlns="http://www.w3.org/2000/svg" xmlns:xlink="http://www.w3.org/1999/xlink" x="0px" y="0px"
	 viewBox="0 0 600 600" style="enable-background:new 0 0 600 600;" xml:space="preserve">
<style type="text/css">
	.st0{fill:#FFFFFF;}
</style>
<g>
	<path class="st0" d="M192.9,535.1l-18.5-42.6l-18.5,42.6h-12.4l24.7-56.9h12.4l24.7,56.9H192.9z"/>
	<path class="st0" d="M229.2,512.4h-16.9V501h36c6.3,0,9.5-1.9,9.5-5.7c0-3.8-3.2-5.7-9.5-5.7h-36v-11.4h37.9c12.6,0,19,5.7,19,17.1
		c0,11.4-6.3,17.1-19,17.1h-3.5l26.7,22.8h-17.5L229.2,512.4z"/>
	<path class="st0" d="M280.6,478.2h56.9v11.4h-56.9V478.2z M280.6,501h56.9v11.4h-56.9V501z M280.6,535.1v-11.4h56.9v11.4H280.6z"/>
	<path class="st0" d="M360.3,495.5v39.7h-11.4v-56.9h11.6l33.9,39.7v-39.7h11.4v56.9h-11.6L360.3,495.5z"/>
	<path class="st0" d="M462.3,535.1l-18.5-42.6l-18.5,42.6h-12.4l24.7-56.9H450l24.7,56.9H462.3z"/>
</g>
<path class="st0" d="M481.5,404L352.2,97.9c0,0-11.9-27.2-48.7-27.2s-48.7,27.2-48.7,27.2L126.7,404c-15.4,35.5,11.9,30.7,36.8,30.7
	s38-30.7,38-30.7s90.2-226.9,93.7-236.3c3.6-9.5,9.5-9.5,9.5-9.5s5.9,0,9.5,9.5c3.6,9.5,93.7,236.3,93.7,236.3s13.1,30.7,38,30.7
	C469.6,434.7,496.9,439.4,481.5,404z"/>
<ellipse class="st0" cx="303.5" cy="389.4" rx="45.9" ry="45.5"/>
</svg>
