<svg xmlns="http://www.w3.org/2000/svg" xmlns:xlink="http://www.w3.org/1999/xlink" viewBox="0 0 216.08 215.96"><defs><style>.cls-1{fill:url(#linear-gradient);}.cls-2{fill:url(#linear-gradient-2);}</style><linearGradient id="linear-gradient" x1="-325.93" y1="638.71" x2="-320.05" y2="634.7" gradientTransform="matrix(54.58, 0, 0, -54, 17699.3, 34549.93)" gradientUnits="userSpaceOnUse"><stop offset="0" stop-color="#fff"/><stop offset="0.49" stop-color="#eaeaea"/><stop offset="1" stop-color="#1c1c1c"/></linearGradient><linearGradient id="linear-gradient-2" x1="-318.62" y1="635.25" x2="-312.74" y2="631.25" gradientTransform="matrix(216.08, 0, 0, -215.96, 68162.92, 136788.65)" xlink:href="#linear-gradient"/></defs><title>Asset 1</title><g id="Layer_2" data-name="Layer 2"><g id="Layer_1-2" data-name="Layer 1"><g id="_01.1_-_Landing_-_Menu_Opened" data-name=" 01.1 - Landing - Menu Opened"><g id="Group_29757" data-name="Group 29757"><g id="Group_29745" data-name="Group 29745"><g id="Group_29744" data-name="Group 29744"><g id="Group_29743" data-name="Group 29743"><path id="Path_39" data-name="Path 39" class="cls-1" d="M107.09,215.94a26.26,26.26,0,0,1-26.69-25.81V189a27,27,0,0,1,27-27h0a17,17,0,0,1,1.85.07,27,27,0,0,1,25.74,28.14v0a27,27,0,0,1-27.87,25.75Z"/></g><path id="Path_40" data-name="Path 40" class="cls-2" d="M197.15,216c-15.53.2-23.46-8.15-28.8-22-9.69-24.23-53.52-133-53.52-133a7,7,0,0,0-6.06-4.23h-.29a6.77,6.77,0,0,0-6.19,4.09C88.84,94.23,57.51,172,49.12,193.62c-6,15.59-14.9,22.34-33.44,22.34-15.38,0-19-5.18-12.82-19.84C9.11,181.3,57,68.42,74,25.89,80.45,10,90.39,0,108.19,0c17.07,0,26.66,9.59,32.73,24.83,23.46,56.4,47.31,112.42,71.16,168.82h0C219.88,211.71,217,216,197.15,216Z"/></g></g></g></g></g></g></svg>